<svg width="31" height="35" viewBox="0 0 31 35" fill="none" xmlns="http://www.w3.org/2000/svg">
<path d="M15.5 30.393C12.0367 30.3958 8.6791 29.2001 5.99715 27.0088C3.31521 24.8175 1.47416 21.7657 0.786499 18.3713C0.0988415 14.977 0.606947 11.4492 2.22457 8.38689C3.8422 5.32456 6.46967 2.91634 9.661 1.57099C13.3267 0.0225257 17.4574 -0.00633001 21.1443 1.49077C24.8313 2.98788 27.7725 5.8883 29.321 9.55399C30.8695 13.2197 30.8983 17.3504 29.4012 21.0373C27.9041 24.7243 25.0037 27.6655 21.338 29.214C19.4912 29.9959 17.5055 30.3969 15.5 30.393ZM15.5 6.82099C13.5168 6.82108 11.595 7.50881 10.062 8.76702C8.52903 10.0252 7.47975 11.7761 7.09297 13.7212C6.70618 15.6663 7.00581 17.6854 7.9408 19.4343C8.8758 21.1833 10.3883 22.5539 12.2206 23.3127C14.0529 24.0715 16.0916 24.1715 17.9894 23.5957C19.8871 23.0198 21.5265 21.8037 22.6282 20.1547C23.7298 18.5056 24.2256 16.5255 24.031 14.5519C23.8364 12.5783 22.9635 10.7332 21.561 9.33099C20.7669 8.53263 19.8223 7.89971 18.7819 7.46887C17.7415 7.03803 16.626 6.81782 15.5 6.82099Z" fill="#202633"/>
<path d="M4.23978 34.5258H10.9048L15.7564 26.019L20.6665 34.5258H26.8755L15.7564 14.7202L4.23978 34.5258Z" fill="#202633"/>
</svg>
